<?xml version="1.0" encoding="UTF-8"?>
<!DOCTYPE svg PUBLIC "-//W3C//DTD SVG 1.1//EN" "http://www.w3.org/Graphics/SVG/1.1/DTD/svg11.dtd">
<svg xmlns="http://www.w3.org/2000/svg" version="1.1" width="758px" height="332px" style="shape-rendering:geometricPrecision; text-rendering:geometricPrecision; image-rendering:optimizeQuality; fill-rule:evenodd; clip-rule:evenodd" xmlns:xlink="http://www.w3.org/1999/xlink">
<g><path style="opacity:0.955" fill="#1b3963" d="M 160.5,-0.5 C 164.5,-0.5 168.5,-0.5 172.5,-0.5C 199.494,4.30177 226.828,7.46844 254.5,9C 352.973,14.9151 451.306,13.2485 549.5,4C 559.053,2.99484 568.387,1.49484 577.5,-0.5C 581.167,-0.5 584.833,-0.5 588.5,-0.5C 587.251,1.1361 585.584,2.30276 583.5,3C 531.475,20.3367 478.142,31.0034 423.5,35C 448.556,47.954 464.389,68.1207 471,95.5C 473.578,120.84 464.412,140.673 443.5,155C 549.158,157.132 653.824,168.299 757.5,188.5C 757.5,189.5 757.5,190.5 757.5,191.5C 660.699,182.98 563.699,178.48 466.5,178C 337.745,175.668 209.078,178.002 80.5,185C 53.4544,186.683 26.4544,188.85 -0.5,191.5C -0.5,190.833 -0.5,190.167 -0.5,189.5C 50.5955,178.096 102.262,169.929 154.5,165C 213.368,159.23 272.368,155.563 331.5,154C 316.26,147.419 304.093,137.253 295,123.5C 288.392,111.323 286.892,98.6567 290.5,85.5C 314.335,117.928 346.335,136.761 386.5,142C 407.23,144.62 424.73,138.453 439,123.5C 445.925,113.932 447.258,103.599 443,92.5C 427.002,62.5714 401.835,48.2381 367.5,49.5C 350.559,50.6517 334.225,54.485 318.5,61C 310.183,64.5033 302.517,69.0033 295.5,74.5C 296.534,56.6053 304.868,43.1053 320.5,34C 267.759,30.5439 216.426,20.2106 166.5,3C 164.121,2.28382 162.121,1.11716 160.5,-0.5 Z"/></g>
<g><path style="opacity:1" fill="#baad97" d="M 356.5,60.5 C 376.597,59.807 393.764,66.4737 408,80.5C 414.59,89.2309 416.257,98.8976 413,109.5C 406.747,119.709 397.58,124.209 385.5,123C 374.553,120.944 365.053,116.11 357,108.5C 356.333,107.167 355.667,105.833 355,104.5C 354.495,99.1156 354.495,93.7822 355,88.5C 351.918,86.375 348.751,84.375 345.5,82.5C 342.001,71.6482 345.668,64.3149 356.5,60.5 Z"/></g>
<g><path style="opacity:0.922" fill="#bbaf98" d="M 639.5,206.5 C 646.614,206.174 653.614,206.841 660.5,208.5C 660.833,209 661.167,209.5 661.5,210C 660.839,212.464 660.339,214.964 660,217.5C 659.586,217.957 659.086,218.291 658.5,218.5C 635.286,213.377 625.619,222.71 629.5,246.5C 638.173,246.334 646.84,246.5 655.5,247C 657.344,249.804 658.011,252.97 657.5,256.5C 648.249,256.182 639.083,256.515 630,257.5C 629.667,281.167 629.333,304.833 629,328.5C 626.422,329.141 623.755,329.475 621,329.5C 618.05,329.432 615.383,328.766 613,327.5C 612.5,303.836 612.333,280.169 612.5,256.5C 604.5,256.5 596.5,256.5 588.5,256.5C 587.989,252.97 588.656,249.804 590.5,247C 597.826,246.5 605.159,246.334 612.5,246.5C 612.789,239.822 613.289,233.156 614,226.5C 615.154,218.683 619.321,213.183 626.5,210C 630.919,208.648 635.252,207.481 639.5,206.5 Z"/></g>
<g><path style="opacity:0.945" fill="#1b3862" d="M 144.5,210.5 C 156.167,210.5 167.833,210.5 179.5,210.5C 179.666,217.841 179.5,225.174 179,232.5C 167.667,233.833 156.333,233.833 145,232.5C 144.5,225.174 144.334,217.841 144.5,210.5 Z"/></g>
<g><path style="opacity:0.969" fill="#1f3c65" d="M 326.5,210.5 C 338.171,210.333 349.838,210.5 361.5,211C 362.82,218.137 362.82,225.303 361.5,232.5C 350.181,233.666 338.848,233.832 327.5,233C 326.519,225.587 326.186,218.087 326.5,210.5 Z"/></g>
<g><path style="opacity:0.962" fill="#1b3963" d="M 22.5,216.5 C 43.8359,216.333 65.1693,216.5 86.5,217C 100.355,217.713 113.355,221.38 125.5,228C 135.938,235.533 139.772,245.699 137,258.5C 135.185,266.305 131.019,272.471 124.5,277C 116.672,281.415 108.338,284.415 99.5,286C 85.9013,287.921 72.2346,288.755 58.5,288.5C 58.5,302.5 58.5,316.5 58.5,330.5C 46.253,330.822 34.0864,330.488 22,329.5C 21.1736,291.762 21.3402,254.095 22.5,216.5 Z M 61.5,236.5 C 68.175,236.334 74.8417,236.5 81.5,237C 87.1479,237.66 92.4812,239.327 97.5,242C 102.685,246.947 103.851,252.781 101,259.5C 96.7229,263.711 91.5563,266.211 85.5,267C 77.8579,268.152 70.1912,268.486 62.5,268C 61.5134,257.582 61.1801,247.082 61.5,236.5 Z"/></g>
<g><path style="opacity:0.939" fill="#bbaf98" d="M 729.5,331.5 C 722.167,331.5 714.833,331.5 707.5,331.5C 698.959,330.472 693.459,325.805 691,317.5C 690.822,297.457 690.322,277.457 689.5,257.5C 681.528,256.502 673.528,256.169 665.5,256.5C 664.989,252.97 665.656,249.804 667.5,247C 675.079,246.816 682.579,246.316 690,245.5C 690.188,239.252 690.688,233.085 691.5,227C 696.412,225.584 701.412,224.751 706.5,224.5C 706.5,231.833 706.5,239.167 706.5,246.5C 715.173,246.334 723.84,246.5 732.5,247C 734.703,249.76 735.036,252.76 733.5,256C 724.506,256.5 715.506,256.666 706.5,256.5C 706.333,275.17 706.5,293.836 707,312.5C 708.474,316.641 711.307,319.474 715.5,321C 722.523,321.397 729.523,321.397 736.5,321C 737.783,323.795 737.783,326.628 736.5,329.5C 734.018,330.067 731.684,330.734 729.5,331.5 Z"/></g>
<g><path style="opacity:0.971" fill="#bcad96" d="M 546.5,331.5 C 537.5,331.5 528.5,331.5 519.5,331.5C 505.352,329.677 493.186,323.677 483,313.5C 471.667,296.833 471.667,280.167 483,263.5C 489.983,255.921 498.483,250.755 508.5,248C 524.833,243.333 541.167,243.333 557.5,248C 584.683,256.533 595.183,274.7 589,302.5C 584.103,314.396 575.603,322.563 563.5,327C 557.747,328.686 552.081,330.186 546.5,331.5 Z M 529.5,254.5 C 545.029,253.578 557.862,258.912 568,270.5C 576.836,286.981 574.336,301.481 560.5,314C 548.777,321.029 536.11,323.362 522.5,321C 498.434,315.368 489.268,300.534 495,276.5C 498.582,267.287 505.082,261.12 514.5,258C 519.596,256.64 524.596,255.474 529.5,254.5 Z"/></g>
<g><path style="opacity:0.954" fill="#1b3963" d="M 190.5,245.5 C 204.171,245.333 217.837,245.5 231.5,246C 239.333,254.5 247.167,263 255,271.5C 262.89,262.948 270.723,254.448 278.5,246C 290.847,245.167 303.18,245.334 315.5,246.5C 303.35,259.817 291.017,272.984 278.5,286C 291.637,300.138 305.137,313.971 319,327.5C 319.483,328.448 319.649,329.448 319.5,330.5C 305.829,330.667 292.163,330.5 278.5,330C 269.655,320.322 260.655,310.822 251.5,301.5C 242.345,310.822 233.345,320.322 224.5,330C 211.5,330.667 198.5,330.667 185.5,330C 199.471,315.029 213.804,300.362 228.5,286C 216.363,272.862 203.863,260.029 191,247.5C 190.536,246.906 190.369,246.239 190.5,245.5 Z"/></g>
<g><path style="opacity:0.96" fill="#bcad97" d="M 436.5,331.5 C 426.167,331.5 415.833,331.5 405.5,331.5C 400.233,330.663 394.9,329.496 389.5,328C 389.132,324.622 389.132,321.122 389.5,317.5C 396.208,318.343 402.875,319.509 409.5,321C 417.167,321.667 424.833,321.667 432.5,321C 441.057,320.243 446.723,315.91 449.5,308C 449.081,304.575 447.414,301.909 444.5,300C 432.556,294.351 420.222,289.685 407.5,286C 400.278,283.489 394.778,278.989 391,272.5C 389.309,260.725 394.143,252.892 405.5,249C 409.42,247.687 413.42,246.687 417.5,246C 432.349,244.72 447.016,245.72 461.5,249C 461.929,252.047 461.929,255.214 461.5,258.5C 447.97,255.765 434.303,254.932 420.5,256C 415.258,256.865 411.091,259.365 408,263.5C 407.333,265.833 407.333,268.167 408,270.5C 409.558,272.359 411.391,273.859 413.5,275C 425.118,279.154 436.785,283.154 448.5,287C 456.12,289.298 461.953,293.798 466,300.5C 469.619,313.429 465.119,322.262 452.5,327C 447.126,328.84 441.793,330.34 436.5,331.5 Z"/></g>
<g><path style="opacity:0.968" fill="#1a3762" d="M 145.5,245.5 C 156.748,245.179 167.915,245.513 179,246.5C 179.5,274.498 179.667,302.498 179.5,330.5C 167.833,330.5 156.167,330.5 144.5,330.5C 144.175,302.093 144.509,273.759 145.5,245.5 Z"/></g>
<g><path style="opacity:1" fill="#1b3963" d="M 327.5,245.5 C 339.254,244.868 350.754,245.535 362,247.5C 362.828,275.072 362.661,302.572 361.5,330C 349.924,330.82 338.424,330.654 327,329.5C 326.184,301.458 326.35,273.458 327.5,245.5 Z"/></g>
</svg>
